# xmcd CD database file
#
# Track frame offsets:
#	151
#	12928
#	26824
#	40051
#	53901
#	68016
#	81199
#	96186
#	110950
#	123493
#	137927
#	150779
#	164513
#	177095
#	189841
#	203372
#	215875
#	228363
#	241366
#	255003
#	268045
#	280622
#	292699
#	304922
#	318023
#	331015
#	344572
#
# Disc length: 4758 seconds
#
# Revision: 1
# Processed by: cddbd v1.5.2PL0 Copyright (c) Steve Scherf et al.
# Submitted via: CDex 1.70beta2
#
DISCID=7112941b
DTITLE=Robert Petway - Tommy McClennan - Mississippi Blues Singers CD 4
DYEAR=1900
DGENRE=Blues
TTITLE0=Robert Petway - Sleepy Woman Blues
TTITLE1=Robert Petway - Don't Go Down Baby
TTITLE2=Robert Petway - Bertha Lee Blues
TTITLE3=Robert Petway - Boogie Woogie Woman
TTITLE4=Robert Petway - How Log Blues
TTITLE5=Robert Petway - In The Evening
TTITLE6=Robert Petway - My Baby Left Me
TTITLE7=Robert Petway - Cotton Pickin' Blues
TTITLE8=Tommy McClennan - You Can Mistreat Me Here
TTITLE9=Tommy McClennan - New Shake'em On Down
TTITLE10=Tommy McClennan - Bottle It Up And Go
TTITLE11=Tommy McClennan - Whiskey Head Woman
TTITLE12=Tommy McClennan - Brown Skin Gal
TTITLE13=Tommy McClennan - Cotton Patch Blues
TTITLE14=Tommy McClennan - Baby Don't You Want To Go ?
TTITLE15=Tommy McClennan - Baby Please Don't Tell On Me
TTITLE16=Tommy McClennan - I´m Going Don't You Know
TTITLE17=Tommy McClennan - New Highway 51
TTITLE18=Tommy McClennan - She´s Just Good Huggin' Size
TTITLE19=Tommy McClennan - My Little Girl
TTITLE20=Tommy McClennan - My Baby's Gone
TTITLE21=Tommy McClennan - It's Hard To Be Lonesome
TTITLE22=Tommy Mc Clennan - My Baby's Doggin' Me
TTITLE23=Tommy McClennan - She's A Good Lokkin' Mama
TTITLE24=Tommy McClennan - Whiskey  Head Man
TTITLE25=Tommy McClennan - New Sugar Mama
TTITLE26=Tommy McClennan - Down To Skin And Bones
EXTD=
EXTT0=
EXTT1=
EXTT2=
EXTT3=
EXTT4=
EXTT5=
EXTT6=
EXTT7=
EXTT8=
EXTT9=
EXTT10=
EXTT11=
EXTT12=
EXTT13=
EXTT14=
EXTT15=
EXTT16=
EXTT17=
EXTT18=
EXTT19=
EXTT20=
EXTT21=
EXTT22=
EXTT23=
EXTT24=
EXTT25=
EXTT26=
PLAYORDER=
